<?xml version="1.0" encoding="utf-8"?>
<!-- Generator: Adobe Illustrator 19.0.0, SVG Export Plug-In . SVG Version: 6.00 Build 0)  -->
<svg version="1.1" id="Layer_1" xmlns="http://www.w3.org/2000/svg" xmlns:xlink="http://www.w3.org/1999/xlink" x="0px" y="0px"
	 viewBox="-14 10.6 19.1 30.4" style="enable-background:new -14 10.6 19.1 30.4;" xml:space="preserve">
<style type="text/css">
	.st0{fill:#FFFFFF;}
	.st1{clip-path:url(#SVGID_4_);}
</style>
<g>
	
		<image style="display:none;overflow:visible;enable-background:new    ;" width="1450" height="242" xlink:href="29BEB0A4562E727D.jpeg"  transform="matrix(0.24 0 0 0.238 135 7)">
	</image>
	<g>
		<g>
			<g>
				<path id="SVGID_1_" class="st0" d="M-7.5,10.6v3.1h1.1c0.5,0,1,0.1,1.4,0.2c0.4,0.1,0.8,0.3,1.1,0.6s0.5,0.7,0.7,1.1
					C-3,16.1-3,16.7-3,17.4v2.7c0,1.6,0.3,2.8,0.8,3.6c0.6,0.8,1.4,1.2,2.6,1.4c-0.6,0.1-1.1,0.2-1.5,0.4c-0.4,0.2-0.8,0.5-1.1,0.9
					c-0.3,0.4-0.5,0.9-0.6,1.5C-2.9,28.5-3,29.2-3,30v4.3c0,0.7-0.1,1.3-0.2,1.7c-0.2,0.5-0.4,0.8-0.7,1.1s-0.7,0.5-1.1,0.6
					s-0.9,0.2-1.4,0.2h-1.1V41h1.4c1.2,0,2.2-0.1,3.1-0.4c0.9-0.3,1.6-0.7,2.1-1.3S0,38,0.3,37.2s0.4-1.8,0.4-3v-4.3
					c0-0.6,0.1-1.1,0.2-1.5c0.1-0.4,0.3-0.7,0.6-1s0.6-0.5,1-0.6c0.4-0.1,0.9-0.2,1.5-0.2h1.1v-3.1H4c-1.2,0-2-0.3-2.5-0.8
					c-0.5-0.6-0.7-1.4-0.7-2.5v-2.8c0-2.4-0.6-4.1-1.7-5.2C-2,11.1-3.7,10.6-6,10.6H-7.5L-7.5,10.6z"/>
			</g>
		</g>
	</g>
	<g>
		<g>
			<g>
				<path id="SVGID_3_" class="st0" d="M-11.2,17.7c1.5,0,2.8,1.3,2.8,2.8s-1.3,2.8-2.8,2.8S-14,22-14,20.5
					C-14,18.9-12.7,17.7-11.2,17.7L-11.2,17.7z"/>
			</g>
		</g>
	</g>
	<g>
		<g>
			<g>
				<defs>
					<path id="SVGID_2_" d="M371.9,44.6c-1.7,0-3.2-0.7-4.4-2.2V48c0,1-0.8,1.8-1.9,1.8c-1,0-1.9-0.8-1.9-1.8V31.7
						c0-1,0.8-1.8,1.9-1.8c1,0,1.8,0.8,1.8,1.8v0.1c1.1-1.4,2.6-2.1,4.4-2.1c3.6,0,6.3,2.7,6.3,7.4
						C378.2,41.9,375.6,44.6,371.9,44.6L371.9,44.6z M370.7,33c-1.2,0-2.6,0.7-3.2,1.6v5c0.6,0.9,2,1.6,3.2,1.6
						c2.1,0,3.6-1.7,3.6-4.2C374.3,34.7,372.9,33,370.7,33L370.7,33z M388.2,33.4c-1.1,0.1-2.2,0.6-2.9,1.5v7.7c0,1-0.8,1.9-1.8,1.9
						h-0.1c-1,0-1.9-0.8-1.9-1.9V31.7c0-1,0.8-1.8,1.9-1.8c1,0,1.8,0.8,1.8,1.8V32c0.7-0.9,1.6-2.1,3.1-2.1c1.1,0,1.6,0.7,1.6,1.5
						C390,32.6,389.2,33.2,388.2,33.4L388.2,33.4z M399.3,44.6c-4.7,0-7.5-3.4-7.5-7.5c0-4,2.8-7.4,7.5-7.4s7.5,3.4,7.5,7.4
						C406.8,41.2,404,44.6,399.3,44.6L399.3,44.6z M399.3,33c-2.3,0-3.6,1.9-3.6,4.1s1.3,4.2,3.6,4.2c2.3,0,3.6-1.9,3.6-4.2
						C402.9,34.9,401.6,33,399.3,33L399.3,33z M418.3,44.6c-1.7,0-3.3-0.8-4.4-2.2v0.1c0,1-0.8,1.9-1.9,1.9c-1,0-1.9-0.8-1.9-1.9
						V26.3c0-1,0.8-1.8,1.9-1.8c1,0,1.8,0.8,1.8,1.8v5.6c1.1-1.4,2.7-2.2,4.4-2.2c3.6,0,6.3,2.8,6.3,7.5
						C424.6,41.9,421.9,44.6,418.3,44.6L418.3,44.6z M417.1,33c-1.2,0-2.6,0.7-3.2,1.6v5c0.6,0.9,2,1.6,3.2,1.6
						c2.2,0,3.6-1.6,3.6-4.1C420.7,34.7,419.3,33,417.1,33L417.1,33z M429.8,44.4c-1,0-1.9-0.8-1.9-1.9V26.3c0-1,0.8-1.8,1.9-1.8
						c1,0,1.8,0.8,1.8,1.8v16.3C431.7,43.6,430.9,44.4,429.8,44.4L429.8,44.4z M447.8,38.4H439c0.2,1.8,1.7,3.3,4.1,3.3
						c0.8,0,1.9-0.2,2.8-0.7c0.2-0.1,0.5-0.2,0.7-0.2c0.8,0,1.6,0.6,1.6,1.5c0,1.7-3.6,2.4-5.5,2.4c-4.3,0-7.6-2.9-7.6-7.5
						c0-4.1,3-7.4,7.3-7.4c3.2,0,5.6,1.9,6.6,4.8c0.2,0.6,0.4,1.4,0.4,2.1C449.5,37.6,448.7,38.4,447.8,38.4L447.8,38.4z
						 M442.5,32.7c-2.3,0-3.3,1.7-3.5,3.1h7C445.9,34.5,444.9,32.7,442.5,32.7L442.5,32.7z M472.3,44.4c-1,0-1.9-0.8-1.9-1.9v-7.3
						c0-1.3-0.6-2.3-2.1-2.3c-1.3,0-2.4,0.9-2.9,1.6v7.9c0,1-0.8,1.9-1.9,1.9c-1,0-1.9-0.8-1.9-1.9v-7.3c0-1.3-0.6-2.3-2.1-2.3
						c-1.3,0-2.4,0.9-2.9,1.7v7.9c0,1-0.8,1.9-1.9,1.9c-1,0-1.9-0.8-1.9-1.9V31.7c0-1,0.8-1.8,1.9-1.8c1,0,1.8,0.8,1.8,1.8v0.2
						c0.6-0.9,2.5-2.2,4.6-2.2s3.4,1,3.9,2.6c0.8-1.3,2.7-2.6,4.9-2.6c2.6,0,4.2,1.4,4.2,4.3v8.6C474.2,43.6,473.4,44.4,472.3,44.4
						L472.3,44.4z"/>
				</defs>
				<clipPath id="SVGID_4_">
					<use xlink:href="#SVGID_2_"  style="overflow:visible;"/>
				</clipPath>
				<g class="st1">
					
						<image style="overflow:visible;enable-background:new    ;" width="1450" height="242" xlink:href="29BEB0A4562E727F.jpeg"  transform="matrix(0.24 0 0 0.238 135 7)">
					</image>
				</g>
			</g>
		</g>
	</g>
</g>
</svg>
